<svg width="19" height="19" viewBox="0 0 19 19" fill="none" xmlns="http://www.w3.org/2000/svg">
<path d="M15.0417 0H3.95833C1.77254 0 0 1.77254 0 3.95833V15.0417C0 17.2274 1.77254 19 3.95833 19H15.0417C17.2282 19 19 17.2274 19 15.0417V3.95833C19 1.77254 17.2282 0 15.0417 0ZM6.33333 15.0417H3.95833V6.33333H6.33333V15.0417ZM5.14583 5.3295C4.38108 5.3295 3.76041 4.70408 3.76041 3.933C3.76041 3.16191 4.38108 2.5365 5.14583 2.5365C5.91058 2.5365 6.53125 3.16191 6.53125 3.933C6.53125 4.70408 5.91137 5.3295 5.14583 5.3295ZM15.8333 15.0417H13.4583V10.6052C13.4583 7.93883 10.2917 8.1407 10.2917 10.6052V15.0417H7.91666V6.33333H10.2917V7.73062C11.3968 5.68337 15.8333 5.53216 15.8333 9.69078V15.0417Z" fill="#FCFCFC"/>
</svg>
